<svg width="80" height="26" viewBox="0 0 80 26" fill="none" xmlns="http://www.w3.org/2000/svg">
<path d="M52.1069 0C46.4266 0 41.3504 2.95324 41.3504 8.40957C41.3504 14.6669 50.3532 15.0991 50.3532 18.2426C50.3532 19.5662 48.841 20.7511 46.2582 20.7511C42.5927 20.7511 39.8531 19.0955 39.8531 19.0955L38.6808 24.6015C38.6808 24.6015 41.8368 26 46.0269 26C52.2373 26 57.1241 22.9017 57.1241 17.3522C57.1241 10.7401 48.0838 10.3208 48.0838 7.4031C48.0838 6.3661 49.3252 5.23006 51.9006 5.23006C54.8064 5.23006 57.1773 6.43413 57.1773 6.43413L58.3245 1.11628C58.3245 1.11628 55.7449 0 52.1069 0ZM0.137578 0.401385L0 1.20408C0 1.20408 2.38975 1.64273 4.54206 2.51788C7.31331 3.5213 7.51079 4.1055 7.9775 5.91989L13.0634 25.5861H19.8812L30.3845 0.401385H23.5824L16.8334 17.5246L14.0794 3.01011C13.8269 1.34898 12.5475 0.401385 10.9815 0.401385H0.137578ZM33.1198 0.401385L27.7837 25.586H34.2701L39.5874 0.401305H33.1198V0.401385ZM69.2967 0.401385C67.7325 0.401385 66.9039 1.24135 66.2957 2.70913L56.7927 25.586H63.5949L64.9109 21.7731H73.1978L73.9982 25.586H80L74.764 0.401385H69.2967ZM70.1813 7.2055L72.1976 16.656H66.7958L70.1813 7.2055Z" fill="#1434CB"></path>
</svg>