<svg width="57" height="36" viewBox="0 0 57 36" fill="none" xmlns="http://www.w3.org/2000/svg">
<path d="M36.2119 3.77148H20.8047V31.4575H36.2119V3.77148Z" fill="#FF5F00"></path>
<path d="M21.7793 17.6136C21.7793 12.2329 24.2738 7.09678 28.4802 3.77054C20.8499 -2.24603 9.74699 -0.925318 3.73084 6.75437C-2.23639 14.3851 -0.915771 25.44 6.76337 31.4566C13.1708 36.4948 22.1217 36.4948 28.5291 31.4566C24.2738 28.1303 21.7793 22.9942 21.7793 17.6136Z" fill="#EB001B"></path>
<path d="M56.9979 17.6136C56.9979 27.3477 49.1231 35.223 39.3897 35.223C35.4278 35.223 31.6127 33.9023 28.5312 31.4566C36.1615 25.44 37.4821 14.3851 31.466 6.70546C30.5855 5.62932 29.6073 4.6021 28.5312 3.77054C36.1615 -2.24603 47.2644 -0.925318 53.2317 6.75437C55.6773 9.83603 56.9979 13.6514 56.9979 17.6136Z" fill="#F79E1B"></path>
</svg>